<svg xmlns="http://www.w3.org/2000/svg" viewBox="0 0 200 200" aria-hidden="true">
  <g fill="#ffd400">
    <path d="M100 18c-31 0-56 13-56 29 0 6 4 10 10 10h92c6 0 10-4 10-10 0-16-25-29-56-29Z"/>
    <path d="M46 66c0-8 8-15 19-19 10-4 22-6 35-6s25 2 35 6c11 4 19 11 19 19 0 6-4 11-10 11H56c-6 0-10-5-10-11Z"/>
    <path d="M36 88c0-10 9-18 23-23 11-4 26-6 41-6s30 2 41 6c14 5 23 13 23 23 0 7-5 12-11 12H47c-6 0-11-5-11-12Z"/>
    <path d="M26 114c0-11 10-20 25-26 13-5 30-8 49-8s36 3 49 8c15 6 25 15 25 26 0 8-5 13-12 13H38c-7 0-12-5-12-13Z"/>
    <path fill-rule="evenodd" d="M18 143c0-12 10-23 28-30 14-6 33-9 54-9s40 3 54 9c18 7 28 18 28 30 0 8-5 14-12 14h-48v-18c0-12-10-22-22-22s-22 10-22 22v18H30c-7 0-12-6-12-14Zm64 14h36v-18c0-10-8-18-18-18s-18 8-18 18v18Z"/>
  </g>
</svg>
